<svg xmlns="http://www.w3.org/2000/svg" viewBox="0 0 256 256" width="256" height="256">
  <defs>
    <linearGradient id="tile" x1="0" y1="0" x2="0" y2="1">
      <stop offset="0" stop-color="#e8434a"/>
      <stop offset="1" stop-color="#b01f2b"/>
    </linearGradient>
  </defs>
  <rect x="8" y="8" width="240" height="240" rx="54" fill="url(#tile)"/>
  <rect x="36" y="208" width="184" height="16" rx="8" fill="#6e0f17" opacity="0.55"/>
  <path d="M80 40 H150 L188 78 V196 a12 12 0 0 1 -12 12 H80 a12 12 0 0 1 -12 -12 V52 a12 12 0 0 1 12 -12 Z" fill="#ffffff"/>
  <path d="M150 40 V66 a12 12 0 0 0 12 12 H188 Z" fill="#f4c7ca"/>
  <rect x="88" y="100" width="76" height="11" rx="5.5" fill="#d0303a"/>
  <rect x="88" y="126" width="80" height="9" rx="4.5" fill="#d6d6dc"/>
  <rect x="88" y="148" width="80" height="9" rx="4.5" fill="#d6d6dc"/>
  <rect x="88" y="170" width="52" height="9" rx="4.5" fill="#d6d6dc"/>
</svg>
